<?xml version="1.0" encoding="UTF-8" standalone="no"?>
<svg class="bg-transparent" viewBox="0 0 1024 1024" version="1.1" style="shape-rendering:geometricPrecision; text-rendering:geometricPrecision; image-rendering:optimizeQuality; fill-rule:evenodd; clip-rule:evenodd" id="svg4" sodipodi:docname="icon.svg" inkscape:version="1.3.2 (091e20e, 2023-11-25)"
   xmlns:inkscape="http://www.inkscape.org/namespaces/inkscape"
   xmlns:sodipodi="http://sodipodi.sourceforge.net/DTD/sodipodi-0.dtd"
   xmlns="http://www.w3.org/2000/svg"
   xmlns:svg="http://www.w3.org/2000/svg">
   <defs id="defs4" />
   <g id="g5" transform="matrix(1.0626808,0,0,1.0360055,-3.1296423,-13.506048)">
      <g id="g2" style="fill:#1a6fd6;fill-opacity:1" transform="matrix(1.7638789,0,0,1.8322528,-433.74563,-423.83631)">
         <path style="opacity:1;fill:#1a6fd6;fill-opacity:1" fill="#000000" d="m 501.5,240.5 c 83.324,-4.18 154.824,22.487 214.5,80 63.357,67.425 87.69,147.092 73,239 -19.676,94.005 -73.509,160.171 -161.5,198.5 -73.77,28.236 -147.103,27.236 -220,-3 C 344.076,724.909 298.243,677.743 270,613.5 c -3.876,-9.793 -7.042,-19.793 -9.5,-30 19.345,-0.333 38.678,0 58,1 32.228,76.381 89.228,121.881 171,136.5 64.095,7.647 121.428,-8.353 172,-48 C 722.749,618.266 746.916,550.1 734,468.5 716.551,392.388 671.718,339.554 599.5,310 c -84.212,-28.023 -159.879,-13.356 -227,44 -26.048,25.082 -45.048,54.748 -57,89 -18.664,0.5 -37.33,0.667 -56,0.5 9.943,-42.224 29.11,-79.557 57.5,-112 49.612,-54.222 111.112,-84.556 184.5,-91 z" id="path2" />
      </g>
      <g id="icon-r-stroke" class="icon-changable-path" transform="matrix(1.7638789,0,0,1.8322528,-433.74563,-423.83631)">
         <path style="fill:currentcolor;opacity:1;fill-opacity:1" fill="currentColor" d="m 363.5,388.5 c 77.667,-0.167 155.334,0 233,0.5 36.274,4.619 62.107,23.453 77.5,56.5 13.249,38.843 4.415,71.676 -26.5,98.5 -5.406,3.732 -11.073,7.065 -17,10 13.792,16.795 27.959,33.295 42.5,49.5 0.5,10.661 0.667,21.328 0.5,32 -16.003,0.167 -32.003,0 -48,-0.5 -20.667,-23.333 -41.333,-46.667 -62,-70 -13.329,-0.5 -26.663,-0.667 -40,-0.5 0,-18.667 0,-37.333 0,-56 23.669,0.167 47.336,0 71,-0.5 21.436,-4.723 30.602,-17.89 27.5,-39.5 -5.147,-13.676 -14.98,-21.842 -29.5,-24.5 -76.333,-0.5 -152.666,-0.667 -229,-0.5 0,-18.333 0,-36.667 0,-55 z" id="path3" />
      </g>
      <g id="g4" style="fill:#1a6fd6;fill-opacity:1" transform="matrix(1.7638789,0,0,1.8322528,-433.74563,-423.83631)">
         <path style="opacity:1;fill:#1a6fd6;fill-opacity:1" fill="#000000" d="m 249.5,485.5 c 78,0 156,0 234,0 0,50 0,100 0,150 -19,0 -38,0 -57,0 0,-31.667 0,-63.333 0,-95 -59,0 -118,0 -177,0 0,-18.333 0,-36.667 0,-55 z" id="path4" />
      </g>
   </g>
</svg>
